<svg xmlns="http://www.w3.org/2000/svg" width="800" height="200" viewBox="0 0 800 200">
  <defs>
    <linearGradient id="grad1" x1="0%" y1="0%" x2="100%" y2="0%">
      <stop offset="0%" style="stop-color:#0066cc;stop-opacity:1" />
      <stop offset="100%" style="stop-color:#00ccff;stop-opacity:1" />
    </linearGradient>
  </defs>
  <rect width="800" height="200" rx="20" ry="20" fill="#1a1a2e" />
  <rect x="10" y="10" width="780" height="180" rx="15" ry="15" fill="none" stroke="url(#grad1)" stroke-width="3" />
  
  <!-- Phone Icon -->
  <g transform="translate(80, 100) scale(2.5)">
    <path d="M15,0 C23.284,0 30,6.716 30,15 C30,23.284 23.284,30 15,30 C6.716,30 0,23.284 0,15 C0,6.716 6.716,0 15,0 Z" fill="#00aaff" opacity="0.2" />
    <path d="M20.5,5 L9.5,5 C8.12,5 7,6.12 7,7.5 L7,22.5 C7,23.88 8.12,25 9.5,25 L20.5,25 C21.88,25 23,23.88 23,22.5 L23,7.5 C23,6.12 21.88,5 20.5,5 Z M15,23 C13.9,23 13,22.1 13,21 C13,19.9 13.9,19 15,19 C16.1,19 17,19.9 17,21 C17,22.1 16.1,23 15,23 Z M21,18 L9,18 L9,8 L21,8 L21,18 Z" fill="#00aaff" />
  </g>
  
  <!-- Title -->
  <text x="400" y="80" font-family="Arial, sans-serif" font-size="36" font-weight="bold" text-anchor="middle" fill="#ffffff">Phone Information Finder Tool</text>
  
  <!-- Subtitle -->
  <text x="400" y="120" font-family="Arial, sans-serif" font-size="18" text-anchor="middle" fill="#00aaff">Find detailed information about any phone number</text>
  
  <!-- Developer Info -->
  <text x="400" y="160" font-family="Arial, sans-serif" font-size="14" text-anchor="middle" fill="#ffffff">Developed by: <tspan fill="#00aaff" font-weight="bold">Saudi Linux</tspan> | Email: <tspan fill="#00aaff">SaudiLinux7@gmail.com</tspan></text>
  
  <!-- Search Icons -->
  <g transform="translate(650, 100) scale(1.2)">
    <circle cx="15" cy="15" r="15" fill="#00aaff" opacity="0.2" />
    <path d="M21.7,20.3l-3.7-3.7c0.8-1.1,1.3-2.4,1.3-3.9c0-3.6-2.9-6.5-6.5-6.5S6.3,9.1,6.3,12.7s2.9,6.5,6.5,6.5c1.5,0,2.8-0.5,3.9-1.3 l3.7,3.7c0.2,0.2,0.5,0.3,0.7,0.3s0.5-0.1,0.7-0.3C22.1,21.3,22.1,20.7,21.7,20.3z M8.3,12.7c0-2.5,2-4.5,4.5-4.5s4.5,2,4.5,4.5 s-2,4.5-4.5,4.5S8.3,15.2,8.3,12.7z" fill="#00aaff" />
  </g>
  
  <!-- Data Icons -->
  <g transform="translate(700, 100) scale(1.2)">
    <circle cx="15" cy="15" r="15" fill="#00aaff" opacity="0.2" />
    <path d="M21,8h-2V7c0-0.6-0.4-1-1-1s-1,0.4-1,1v1h-6V7c0-0.6-0.4-1-1-1s-1,0.4-1,1v1H7c-1.1,0-2,0.9-2,2v9c0,1.1,0.9,2,2,2h14 c1.1,0,2-0.9,2-2v-9C23,8.9,22.1,8,21,8z M21,19H7v-7h14V19z" fill="#00aaff" />
  </g>
</svg>